#N canvas 370 83 871 683 12;
#X obj 133 30 table word;
#N canvas 2 203 225 168 word_reader 0;
#X obj 30 13 netreceive 6006;
#X msg 31 72 read -resize \$1 word;
#X obj 30 38 symbol;
#X obj 30 102 soundfiler;
#X obj 97 128 outlet;
#X obj 13 135 outlet;
#X connect 0 0 2 0;
#X connect 1 0 3 0;
#X connect 2 0 1 0;
#X connect 3 0 5 0;
#X connect 3 1 4 0;
#X restore 20 28 pd word_reader;
#X text 12 7 indicate the word to localhost:6006;
#X floatatom 50 96 5 0 0 0 - - -;
#X obj 265 199 tabread4~ word;
#X obj 264 174 vline~;
#X msg 232 138 0, f 1;
#X obj 290 35 t f f;
#X msg 268 142 \$2 \$1;
#X obj 267 115 pack f f;
#X obj 220 104 del;
#X obj 272 572 dac~;
#X msg 21 262 info;
#X msg 57 262 listplugins;
#X obj 67 320 route label;
#X obj 93 349 print PLUGIN_NAME;
#X floatatom 49 206 5 0 0 0 - - -;
#X obj 85 68 bng 15 250 50 0 empty empty empty 17 7 0 10 -262144 -1
-1;
#X obj 138 293 plugin~ tap_pitch;
#X msg 16 231 control Semitone \$1;
#N canvas 2 83 450 300 randomshift 0;
#X obj 113 69 sel 0 1 2 3;
#X obj 110 47 random 4;
#X msg 96 102 4;
#X msg 121 131 5;
#X msg 146 162 7;
#X msg 183 188 12;
#X obj 63 26 inlet;
#X obj 87 218 outlet;
#X connect 0 0 5 0;
#X connect 0 1 2 0;
#X connect 0 2 3 0;
#X connect 0 3 4 0;
#X connect 1 0 0 0;
#X connect 2 0 7 0;
#X connect 3 0 7 0;
#X connect 4 0 7 0;
#X connect 5 0 7 0;
#X connect 6 0 1 0;
#X restore 18 164 pd randomshift;
#X obj 462 126 fiddle~;
#X msg 122 200 control Dry -42;
#X msg 156 257 control Wet 0;
#N canvas 2 83 450 401 monkvoice~ 0;
#X obj 102 19 inlet;
#X obj 224 25 inlet~;
#X obj 137 297 outlet;
#X obj 264 301 outlet~;
#X msg 22 164 info;
#X msg 58 164 listplugins;
#X obj 68 222 route label;
#X floatatom 50 108 5 0 0 0 - - -;
#X obj 139 195 plugin~ tap_pitch;
#X msg 17 133 control Semitone \$1;
#N canvas 2 83 450 300 randomshift 0;
#X obj 113 69 sel 0 1 2 3;
#X obj 110 47 random 4;
#X msg 96 102 4;
#X msg 121 131 5;
#X msg 146 162 7;
#X msg 183 188 12;
#X obj 43 8 inlet;
#X obj 87 218 outlet;
#X obj 43 33 bang;
#X connect 0 0 5 0;
#X connect 0 1 2 0;
#X connect 0 2 3 0;
#X connect 0 3 4 0;
#X connect 1 0 0 0;
#X connect 2 0 7 0;
#X connect 3 0 7 0;
#X connect 4 0 7 0;
#X connect 5 0 7 0;
#X connect 6 0 8 0;
#X connect 8 0 1 0;
#X restore 19 66 pd randomshift;
#X msg 123 92 control Dry -42;
#X msg 157 159 control Wet 0;
#X obj 31 -1 loadbang;
#X connect 0 0 10 0;
#X connect 1 0 8 1;
#X connect 4 0 8 0;
#X connect 5 0 8 0;
#X connect 7 0 9 0;
#X connect 8 0 6 0;
#X connect 8 0 2 0;
#X connect 8 1 3 0;
#X connect 9 0 8 0;
#X connect 10 0 7 0;
#X connect 11 0 8 0;
#X connect 12 0 8 0;
#X connect 13 0 11 0;
#X connect 13 0 12 0;
#X restore 345 276 pd monkvoice~;
#X obj 505 30 loadbang;
#X msg 505 57 \; pd dsp 1 \;;
#N canvas 2 83 450 425 verbspace 0;
#X obj 274 298 plugin~ tap_reverb;
#X msg 331 79 control Dry 0;
#X msg 319 28 control Comb 1;
#X msg 439 54 control Bandpass 1;
#X msg 489 100 control Allpass 1;
#X obj 335 -78 loadbang;
#X obj 196 92 inlet~;
#X obj 351 368 outlet~;
#X obj 267 93 inlet~;
#X obj 422 369 outlet~;
#X msg 395 258 control Reverb 16;
#X msg 403 194 control Decay 16000;
#X msg 365 136 control Wet -20;
#X connect 0 1 7 0;
#X connect 0 2 9 0;
#X connect 1 0 0 0;
#X connect 2 0 0 0;
#X connect 3 0 0 0;
#X connect 4 0 0 0;
#X connect 5 0 2 0;
#X connect 5 0 3 0;
#X connect 5 0 1 0;
#X connect 5 0 12 0;
#X connect 5 0 4 0;
#X connect 5 0 11 0;
#X connect 5 0 10 0;
#X connect 6 0 0 1;
#X connect 8 0 0 2;
#X connect 10 0 0 0;
#X connect 11 0 0 0;
#X connect 12 0 0 0;
#X restore 293 498 pd verbspace;
#N canvas 2 83 450 401 monkvoice~ 0;
#X obj 102 19 inlet;
#X obj 224 25 inlet~;
#X obj 137 297 outlet;
#X obj 264 301 outlet~;
#X msg 22 164 info;
#X msg 58 164 listplugins;
#X obj 68 222 route label;
#X floatatom 50 108 5 0 0 0 - - -;
#X obj 139 195 plugin~ tap_pitch;
#X msg 17 133 control Semitone \$1;
#N canvas 2 83 450 300 randomshift 0;
#X obj 113 69 sel 0 1 2 3;
#X obj 110 47 random 4;
#X msg 96 102 4;
#X msg 121 131 5;
#X msg 146 162 7;
#X msg 183 188 12;
#X obj 43 8 inlet;
#X obj 87 218 outlet;
#X obj 43 33 bang;
#X connect 0 0 5 0;
#X connect 0 1 2 0;
#X connect 0 2 3 0;
#X connect 0 3 4 0;
#X connect 1 0 0 0;
#X connect 2 0 7 0;
#X connect 3 0 7 0;
#X connect 4 0 7 0;
#X connect 5 0 7 0;
#X connect 6 0 8 0;
#X connect 8 0 1 0;
#X restore 19 66 pd randomshift;
#X msg 123 92 control Dry -42;
#X msg 157 159 control Wet 0;
#X obj 31 -1 loadbang;
#X connect 0 0 10 0;
#X connect 1 0 8 1;
#X connect 4 0 8 0;
#X connect 5 0 8 0;
#X connect 7 0 9 0;
#X connect 8 0 6 0;
#X connect 8 0 2 0;
#X connect 8 1 3 0;
#X connect 9 0 8 0;
#X connect 10 0 7 0;
#X connect 11 0 8 0;
#X connect 12 0 8 0;
#X connect 13 0 11 0;
#X connect 13 0 12 0;
#X restore 453 296 pd monkvoice~;
#X obj 436 175 int 0;
#X obj 483 160 + 1;
#N canvas 2 83 450 401 monkvoice~ 0;
#X obj 102 19 inlet;
#X obj 224 25 inlet~;
#X obj 137 297 outlet;
#X obj 264 301 outlet~;
#X msg 22 164 info;
#X msg 58 164 listplugins;
#X floatatom 50 108 5 0 0 0 - - -;
#X obj 139 195 plugin~ tap_pitch;
#X msg 17 133 control Semitone \$1;
#N canvas 2 83 450 300 randomshift 0;
#X obj 113 69 sel 0 1 2 3;
#X obj 110 47 random 4;
#X msg 96 102 4;
#X msg 121 131 5;
#X msg 146 162 7;
#X msg 183 188 12;
#X obj 43 8 inlet;
#X obj 87 218 outlet;
#X obj 43 33 bang;
#X connect 0 0 5 0;
#X connect 0 1 2 0;
#X connect 0 2 3 0;
#X connect 0 3 4 0;
#X connect 1 0 0 0;
#X connect 2 0 7 0;
#X connect 3 0 7 0;
#X connect 4 0 7 0;
#X connect 5 0 7 0;
#X connect 6 0 8 0;
#X connect 8 0 1 0;
#X restore 19 66 pd randomshift;
#X msg 123 92 control Dry -42;
#X msg 157 159 control Wet 0;
#X obj 31 -1 loadbang;
#X connect 0 0 9 0;
#X connect 1 0 7 1;
#X connect 4 0 7 0;
#X connect 5 0 7 0;
#X connect 6 0 8 0;
#X connect 7 0 2 0;
#X connect 7 1 3 0;
#X connect 8 0 7 0;
#X connect 9 0 6 0;
#X connect 10 0 7 0;
#X connect 11 0 7 0;
#X connect 12 0 10 0;
#X connect 12 0 11 0;
#X restore 392 381 pd monkvoice~;
#X obj 255 67 / 12;
#N canvas 2 83 450 401 monkvoice~ 0;
#X obj 102 19 inlet;
#X obj 224 25 inlet~;
#X obj 137 297 outlet;
#X obj 264 301 outlet~;
#X msg 22 164 info;
#X msg 58 164 listplugins;
#X obj 68 222 route label;
#X floatatom 50 108 5 0 0 0 - - -;
#X obj 139 195 plugin~ tap_pitch;
#X msg 17 133 control Semitone \$1;
#N canvas 2 83 450 300 randomshift 0;
#X obj 113 69 sel 0 1 2 3;
#X obj 110 47 random 4;
#X msg 96 102 4;
#X msg 121 131 5;
#X msg 146 162 7;
#X msg 183 188 12;
#X obj 43 8 inlet;
#X obj 87 218 outlet;
#X obj 43 33 bang;
#X connect 0 0 5 0;
#X connect 0 1 2 0;
#X connect 0 2 3 0;
#X connect 0 3 4 0;
#X connect 1 0 0 0;
#X connect 2 0 7 0;
#X connect 3 0 7 0;
#X connect 4 0 7 0;
#X connect 5 0 7 0;
#X connect 6 0 8 0;
#X connect 8 0 1 0;
#X restore 19 66 pd randomshift;
#X msg 123 92 control Dry -42;
#X msg 157 159 control Wet 0;
#X obj 31 -1 loadbang;
#X connect 0 0 10 0;
#X connect 1 0 8 1;
#X connect 4 0 8 0;
#X connect 5 0 8 0;
#X connect 7 0 9 0;
#X connect 8 0 6 0;
#X connect 8 0 2 0;
#X connect 8 1 3 0;
#X connect 9 0 8 0;
#X connect 10 0 7 0;
#X connect 11 0 8 0;
#X connect 12 0 8 0;
#X connect 13 0 11 0;
#X connect 13 0 12 0;
#X restore 539 339 pd monkvoice~;
#X obj 483 210 sel 0 1 2 3;
#X obj 483 185 % 4;
#X floatatom 431 439 5 0 0 0 - - -;
#X obj 431 414 fiddle~ 1024;
#X floatatom 520 476 5 0 0 0 - - -;
#X obj 520 451 fiddle~ 1024;
#X floatatom 629 414 5 0 0 0 - - -;
#X obj 629 389 fiddle~ 1024;
#X floatatom 335 450 5 0 0 0 - - -;
#X obj 335 425 fiddle~ 1024;
#X floatatom 139 459 5 0 0 0 - - -;
#X obj 139 434 fiddle~ 1024;
#X obj 139 483 + 0.49;
#X obj 137 513 int;
#X obj 356 2 import zexy aubio;
#X obj 560 265 z~ 550;
#X obj 646 308 z~ 790;
#X obj 359 248 z~ 140;
#X obj 418 625 maxlib/chord;
#X obj 127 541 makenote 70 500;
#X obj 338 537 + 0.49;
#X obj 336 567 int;
#X obj 326 595 makenote 70 500;
#X obj 420 500 + 0.49;
#X obj 418 530 int;
#X obj 408 558 makenote 70 500;
#X obj 534 525 + 0.49;
#X obj 532 555 int;
#X obj 522 583 makenote 70 500;
#X obj 632 474 + 0.49;
#X obj 630 504 int;
#X obj 620 532 makenote 70 500;
#X floatatom 371 633 5 0 0 0 - - -;
#X symbolatom 557 641 28 0 0 0 - - -;
#X obj 454 339 z~ 450;
#X connect 1 0 3 0;
#X connect 3 0 7 0;
#X connect 4 0 18 1;
#X connect 4 0 21 0;
#X connect 4 0 27 1;
#X connect 4 0 49 0;
#X connect 4 0 50 0;
#X connect 4 0 51 0;
#X connect 4 0 68 0;
#X connect 5 0 4 0;
#X connect 6 0 5 0;
#X connect 7 0 32 0;
#X connect 7 1 9 1;
#X connect 8 0 5 0;
#X connect 9 0 8 0;
#X connect 10 0 6 0;
#X connect 12 0 18 0;
#X connect 13 0 18 0;
#X connect 14 0 15 0;
#X connect 16 0 19 0;
#X connect 17 0 3 0;
#X connect 18 0 14 0;
#X connect 18 1 27 0;
#X connect 18 1 45 0;
#X connect 19 0 18 0;
#X connect 20 0 16 0;
#X connect 21 1 20 0;
#X connect 21 1 29 0;
#X connect 22 0 18 0;
#X connect 23 0 18 0;
#X connect 24 1 27 0;
#X connect 24 1 43 0;
#X connect 25 0 26 0;
#X connect 27 0 11 0;
#X connect 27 1 11 1;
#X connect 28 1 27 1;
#X connect 28 1 39 0;
#X connect 29 0 30 0;
#X connect 30 0 35 0;
#X connect 31 1 27 0;
#X connect 31 1 37 0;
#X connect 32 0 9 0;
#X connect 32 0 10 0;
#X connect 33 1 27 1;
#X connect 33 1 41 0;
#X connect 34 0 24 0;
#X connect 34 1 28 0;
#X connect 34 2 31 0;
#X connect 34 3 33 0;
#X connect 35 0 29 1;
#X connect 35 0 34 0;
#X connect 36 0 57 0;
#X connect 37 0 36 0;
#X connect 38 0 60 0;
#X connect 39 0 38 0;
#X connect 40 0 63 0;
#X connect 41 0 40 0;
#X connect 42 0 54 0;
#X connect 43 0 42 0;
#X connect 44 0 46 0;
#X connect 45 0 44 0;
#X connect 46 0 47 0;
#X connect 47 0 53 0;
#X connect 49 0 28 1;
#X connect 50 0 33 1;
#X connect 51 0 24 1;
#X connect 52 0 66 0;
#X connect 52 2 67 0;
#X connect 53 0 52 0;
#X connect 53 1 52 1;
#X connect 54 0 55 0;
#X connect 55 0 56 0;
#X connect 56 0 52 0;
#X connect 56 1 52 1;
#X connect 57 0 58 0;
#X connect 58 0 59 0;
#X connect 59 0 52 0;
#X connect 59 1 52 1;
#X connect 60 0 61 0;
#X connect 61 0 62 0;
#X connect 62 0 52 0;
#X connect 62 1 52 1;
#X connect 63 0 64 0;
#X connect 64 0 65 0;
#X connect 65 0 52 0;
#X connect 65 1 52 1;
#X connect 68 0 31 1;
